<svg width="299" height="89" viewBox="0 0 299 89" fill="none" xmlns="http://www.w3.org/2000/svg">
<path d="M17.5117 81.4688C16.0013 82.3542 14.2826 83.0052 12.3555 83.4219C10.3763 83.8906 8.5013 84.125 6.73047 84.125C6.36589 84.125 5.87109 84.099 5.24609 84.0469C4.56901 84.0469 3.91797 83.9948 3.29297 83.8906C2.66797 83.8385 2.12109 83.7344 1.65234 83.5781C1.18359 83.4219 0.949218 83.1875 0.949218 82.875C0.949218 82.7188 1.02734 82.5625 1.18359 82.4062C1.28776 82.25 1.44401 82.1719 1.65234 82.1719C2.53776 82.1719 3.42318 82.25 4.30859 82.4062C5.14193 82.6146 5.94922 82.7188 6.73047 82.7188C8.60547 82.7188 10.3503 82.5104 11.9648 82.0938C13.5794 81.6771 15.0638 81.1302 16.418 80.4531C14.543 78.474 13.1628 76.3385 12.2773 74.0469C11.3919 71.7031 10.9492 69.3333 10.9492 66.9375C10.9492 65.0104 11.2357 63.0573 11.8086 61.0781C12.3294 59.099 13.1107 57.3021 14.1523 55.6875C15.194 54.0208 16.4961 52.6667 18.0586 51.625C19.569 50.5833 21.3138 50.0625 23.293 50.0625C26.1055 50.2188 28.2409 51.1823 29.6992 52.9531C31.1576 54.6719 31.8867 56.8073 31.8867 59.3594C31.7826 63.5781 30.6367 67.5625 28.4492 71.3125C26.2617 75.0104 23.0326 78.1354 18.7617 80.6875C21.2617 82.5625 23.944 84.0469 26.8086 85.1406C29.7253 86.2865 32.9544 86.8594 36.4961 86.8594C38.8398 86.8594 41.0273 86.6771 43.0586 86.3125C45.1419 85.9479 47.043 85.4792 48.7617 84.9063C50.4805 84.3333 52.043 83.6562 53.4492 82.875C54.8555 82.1458 56.0534 81.4167 57.043 80.6875C59.8555 78.6042 62.1471 76.3125 63.918 73.8125C65.6888 71.3125 67.069 68.7083 68.0586 66C69.0482 63.2396 69.7253 60.375 70.0898 57.4062C70.5065 54.3854 70.793 51.3385 70.9492 48.2656C71.1055 45.1406 71.2096 41.9896 71.2617 38.8125C71.3659 35.6354 71.6003 32.4844 71.9648 29.3594C69.6211 29.3594 67.4076 29.0729 65.3242 28.5C63.293 27.875 61.444 26.9375 59.7773 25.6875C59.569 25.5312 59.4648 25.3229 59.4648 25.0625C59.4648 24.8542 59.543 24.6979 59.6992 24.5937C59.8555 24.4896 60.0117 24.4375 60.168 24.4375C60.3763 24.4375 60.5326 24.4896 60.6367 24.5937C62.1471 25.7396 63.8659 26.599 65.793 27.1719C67.7721 27.6927 69.8815 27.9531 72.1211 27.9531C72.4336 25.2448 73.0326 22.3021 73.918 19.125C74.8034 15.9479 76.0273 12.9792 77.5898 10.2188C79.2044 7.45833 81.1836 5.16666 83.5273 3.34375C85.9232 1.46875 88.7617 0.531248 92.043 0.531248C94.4909 0.635413 96.4961 1.36458 98.0586 2.71875C99.6732 4.02083 100.48 6.05208 100.48 8.8125C100.48 10.7917 100.012 12.6927 99.0742 14.5156C98.1888 16.3385 97.043 18.0312 95.6367 19.5938C94.2305 21.1042 92.694 22.4583 91.0273 23.6562C89.3607 24.8021 87.7721 25.7135 86.2617 26.3906C84.2826 27.276 82.1732 27.9792 79.9336 28.5C77.7461 28.9688 75.5586 29.2552 73.3711 29.3594C73.0065 32.4844 72.7721 35.6354 72.668 38.8125C72.6159 41.9896 72.5117 45.1667 72.3555 48.3437C72.2513 51.4687 71.9909 54.5677 71.5742 57.6406C71.1576 60.7135 70.4284 63.6823 69.3867 66.5469C68.3451 69.3594 66.9128 72.0677 65.0898 74.6719C63.2669 77.276 60.8711 79.6979 57.9023 81.9375C55.7669 83.5 52.8763 84.9323 49.2305 86.2344C45.5846 87.5885 41.3398 88.2656 36.4961 88.2656C33.1628 88.2656 29.9596 87.7448 26.8867 86.7031C23.8138 85.7135 21.0794 84.3073 18.6836 82.4844L17.5117 81.4688ZM14.7773 57.1719C13.2148 60.401 12.4336 63.6823 12.4336 67.0156C12.4336 69.3594 12.8503 71.625 13.6836 73.8125C14.5169 75.9479 15.8451 77.9271 17.668 79.75C19.543 78.6042 21.2357 77.276 22.7461 75.7656C24.3086 74.2552 25.6628 72.6406 26.8086 70.9219C27.9544 69.151 28.8398 67.276 29.4648 65.2969C30.0898 63.3177 30.4023 61.3125 30.4023 59.2812C30.4023 57.0937 29.7513 55.2448 28.4492 53.7344C27.1992 52.224 25.4805 51.4688 23.293 51.4688C21.2096 51.6771 19.4909 52.3021 18.1367 53.3438C16.7826 54.3333 15.6628 55.6094 14.7773 57.1719ZM76.4961 15.6875C75.7148 17.6667 75.0898 19.6719 74.6211 21.7031C74.1523 23.7344 73.7878 25.8177 73.5273 27.9531C76.2357 27.849 79.0742 27.3281 82.043 26.3906C85.0638 25.401 87.8242 24.0729 90.3242 22.4062C92.8242 20.6875 94.8815 18.6823 96.4961 16.3906C98.1107 14.0469 98.918 11.4687 98.918 8.65625C98.918 7.40625 98.7096 6.36458 98.293 5.53125C97.8763 4.64583 97.3294 3.94271 96.6523 3.42188C96.0273 2.90104 95.2982 2.53646 94.4648 2.32812C93.6315 2.06771 92.8242 1.9375 92.043 1.9375C90.0117 2.04166 88.1888 2.51041 86.5742 3.34375C84.9596 4.125 83.5013 5.16667 82.1992 6.46875C80.9492 7.77083 79.8555 9.22916 78.918 10.8437C77.9805 12.4062 77.1732 14.0208 76.4961 15.6875ZM94.6992 80.6875C93.8138 80.6875 92.9284 80.6354 92.043 80.5312C91.1576 80.4271 90.3763 80.1927 89.6992 79.8281C88.9701 79.4115 88.3971 78.8385 87.9805 78.1094C87.5638 77.3802 87.3555 76.4167 87.3555 75.2187C87.3555 73.6562 87.7201 71.9896 88.4492 70.2188C89.1263 68.3958 90.0117 66.5729 91.1055 64.75C92.1471 62.9271 93.2669 61.1562 94.4648 59.4375C95.6628 57.7188 96.7565 56.1562 97.7461 54.75C99.1523 52.7188 100.533 50.7917 101.887 48.9687C103.293 47.1458 104.543 45.5312 105.637 44.125C106.783 42.7187 107.694 41.599 108.371 40.7656C109.1 39.9323 109.465 39.5156 109.465 39.5156C109.517 39.3594 109.699 39.2812 110.012 39.2812C110.48 39.2812 110.715 39.5156 110.715 39.9844C110.715 40.0885 110.663 40.2448 110.559 40.4531C110.559 40.4531 110.194 40.8698 109.465 41.7031C108.788 42.5365 107.876 43.6562 106.73 45.0625C105.637 46.4167 104.387 48.0052 102.98 49.8281C101.626 51.651 100.246 53.5521 98.8398 55.5312C97.9023 56.8333 96.8607 58.3177 95.7148 59.9844C94.569 61.651 93.4753 63.3698 92.4336 65.1406C91.3919 66.9115 90.5326 68.6823 89.8555 70.4531C89.1263 72.1719 88.7617 73.7604 88.7617 75.2187C88.7617 76.1562 88.944 76.9115 89.3086 77.4844C89.6732 78.0052 90.1419 78.3958 90.7148 78.6562C91.2878 78.9167 91.9128 79.099 92.5898 79.2031C93.319 79.2552 94.0221 79.2812 94.6992 79.2812C96.9388 79.2812 99.3867 78.8385 102.043 77.9531C104.699 77.0156 107.355 75.8177 110.012 74.3594C112.72 72.849 115.376 71.1562 117.98 69.2812C120.637 67.4062 123.085 65.4792 125.324 63.5C125.533 63.3958 125.689 63.3437 125.793 63.3437C126.262 63.3437 126.496 63.5781 126.496 64.0469C126.496 64.2552 126.418 64.4375 126.262 64.5938C123.918 66.5729 121.444 68.526 118.84 70.4531C116.288 72.3802 113.658 74.099 110.949 75.6094C108.241 77.1198 105.507 78.3437 102.746 79.2812C100.038 80.2187 97.3555 80.6875 94.6992 80.6875ZM120.793 29.5156C120.793 30.5573 120.428 31.4688 119.699 32.25C118.97 32.9792 118.085 33.3437 117.043 33.3437C116.001 33.3437 115.09 32.9792 114.309 32.25C113.579 31.4688 113.215 30.5573 113.215 29.5156C113.215 28.474 113.579 27.5885 114.309 26.8594C115.09 26.1302 116.001 25.7656 117.043 25.7656C118.085 25.7656 118.97 26.1302 119.699 26.8594C120.428 27.5885 120.793 28.474 120.793 29.5156ZM146.301 83.5781C144.217 83.474 142.655 82.849 141.613 81.7031C140.572 80.5573 140.051 79.0729 140.051 77.25C140.051 75.2708 140.676 73.0052 141.926 70.4531C143.176 67.901 144.66 65.3229 146.379 62.7188C148.098 60.1146 149.868 57.6406 151.691 55.2969C153.514 52.901 154.999 50.8958 156.145 49.2812C156.405 48.8646 156.639 48.4479 156.848 48.0312C157.056 47.6146 157.16 47.224 157.16 46.8594C157.16 46.3906 156.978 46.0521 156.613 45.8438C156.301 45.5833 155.91 45.401 155.441 45.2969C154.973 45.1406 154.478 45.0625 153.957 45.0625C153.488 45.0104 153.124 44.9844 152.863 44.9844C152.759 44.9844 152.368 44.9583 151.691 44.9062C151.066 44.8542 150.285 44.75 149.348 44.5937C148.41 44.4375 147.395 44.2292 146.301 43.9688C145.259 43.6562 144.322 43.2656 143.488 42.7969C143.28 43.1094 143.124 43.3698 143.02 43.5781C140.676 47.5885 138.098 51.3646 135.285 54.9062C132.525 58.4479 129.504 61.7031 126.223 64.6719C126.118 64.776 125.962 64.8281 125.754 64.8281C125.285 64.8281 125.051 64.5938 125.051 64.125C125.051 63.9167 125.129 63.7344 125.285 63.5781C128.775 60.4531 131.822 57.1198 134.426 53.5781C137.082 50.0365 139.53 46.4427 141.77 42.7969C141.874 42.6406 141.978 42.4844 142.082 42.3281C142.186 42.1198 142.238 41.9896 142.238 41.9375C141.457 41.3646 140.884 40.7135 140.52 39.9844C140.207 39.2031 140.051 38.4219 140.051 37.6406C140.051 36.8594 140.155 36.2344 140.363 35.7656C140.624 35.2969 140.91 34.9583 141.223 34.75C141.535 34.4896 141.848 34.3333 142.16 34.2812C142.473 34.2292 142.681 34.2031 142.785 34.2031C143.462 34.2031 143.983 34.3333 144.348 34.5938C144.712 34.8021 144.973 35.0885 145.129 35.4531C145.285 35.7656 145.363 36.0781 145.363 36.3906C145.415 36.7031 145.441 36.9375 145.441 37.0937C145.441 38.2917 144.999 39.776 144.113 41.5469C144.738 41.9115 145.467 42.224 146.301 42.4844C147.186 42.7448 148.046 42.9531 148.879 43.1094C149.712 43.2656 150.493 43.3958 151.223 43.5C151.952 43.5521 152.525 43.5781 152.941 43.5781C153.254 43.5781 153.723 43.6042 154.348 43.6562C154.973 43.7083 155.598 43.8385 156.223 44.0469C156.848 44.2031 157.395 44.5156 157.863 44.9844C158.332 45.401 158.566 46 158.566 46.7812C158.566 47.5625 158.15 48.6562 157.316 50.0625C156.483 51.4167 155.415 52.9531 154.113 54.6719C152.863 56.3906 151.483 58.2396 149.973 60.2187C148.514 62.1979 147.134 64.2031 145.832 66.2344C144.582 68.2135 143.54 70.1667 142.707 72.0938C141.874 74.0208 141.457 75.7917 141.457 77.4062C141.457 80.5833 143.358 82.1719 147.16 82.1719C148.462 82.1719 150.103 81.8854 152.082 81.3125C154.061 80.7396 156.223 79.9583 158.566 78.9687C160.91 77.9792 163.358 76.8073 165.91 75.4531C168.514 74.099 171.066 72.6667 173.566 71.1562C173.671 71.0521 173.801 71 173.957 71C174.113 71 174.243 71.0781 174.348 71.2344C174.504 71.3906 174.582 71.5469 174.582 71.7031C174.582 71.9635 174.478 72.1719 174.27 72.3281C171.561 73.9948 168.853 75.5312 166.145 76.9375C163.488 78.2917 160.936 79.4635 158.488 80.4531C156.04 81.4427 153.775 82.1979 151.691 82.7188C149.608 83.2917 147.811 83.5781 146.301 83.5781ZM141.613 36.9375C141.561 37.0417 141.535 37.224 141.535 37.4844C141.535 38.0573 141.665 38.6823 141.926 39.3594C142.186 39.9844 142.525 40.4271 142.941 40.6875C143.358 39.8021 143.645 39.099 143.801 38.5781C143.957 38.0052 144.035 37.5365 144.035 37.1719C144.035 36.7552 143.931 36.3906 143.723 36.0781C143.514 35.7656 143.176 35.6094 142.707 35.6094C142.134 35.6615 141.77 36.1042 141.613 36.9375ZM178.84 79.9844C177.017 78.9948 175.741 77.6927 175.012 76.0781C174.23 74.4635 173.84 72.6927 173.84 70.7656C173.84 69.2552 174.048 67.6927 174.465 66.0781C174.829 64.4635 175.35 62.9271 176.027 61.4687C176.704 59.9583 177.46 58.5781 178.293 57.3281C179.126 56.026 179.986 54.9062 180.871 53.9687C180.038 53.5521 179.413 53.2396 178.996 53.0312C178.632 52.8229 178.397 52.6667 178.293 52.5625C178.189 52.4062 178.137 52.3021 178.137 52.25C178.189 52.1979 178.215 52.1198 178.215 52.0156C178.215 51.5469 178.449 51.3125 178.918 51.3125C179.126 51.3125 179.204 51.3125 179.152 51.3125C179.1 51.2604 179.1 51.2865 179.152 51.3906C179.204 51.4427 179.387 51.5729 179.699 51.7812C180.064 51.9896 180.793 52.3542 181.887 52.875C186.262 48.1875 190.819 44.4635 195.559 41.7031C200.35 38.9427 204.96 37.5625 209.387 37.5625C210.897 37.5625 212.355 37.7708 213.762 38.1875C215.168 38.6042 216.418 39.2031 217.512 39.9844C218.605 40.7135 219.465 41.625 220.09 42.7187C220.767 43.7604 221.105 44.9323 221.105 46.2344C221.105 48.4219 220.428 50.349 219.074 52.0156C217.772 53.6823 216.132 55.0625 214.152 56.1562C212.225 57.25 210.142 58.0833 207.902 58.6562C205.663 59.1771 203.605 59.4375 201.73 59.4375C199.439 59.4375 197.251 59.2552 195.168 58.8906C193.085 58.474 191.184 58.0312 189.465 57.5625C187.798 57.0417 186.34 56.5208 185.09 56C183.84 55.4271 182.876 54.9844 182.199 54.6719C181.418 55.401 180.611 56.3906 179.777 57.6406C178.944 58.8385 178.189 60.1667 177.512 61.625C176.887 63.0312 176.34 64.5417 175.871 66.1562C175.454 67.7187 175.246 69.2552 175.246 70.7656C175.246 73.7344 176.262 76.1042 178.293 77.875C180.376 79.6458 183.579 80.5312 187.902 80.5312C189.569 80.5312 191.262 80.4271 192.98 80.2187C194.699 79.9583 196.34 79.6719 197.902 79.3594C199.465 78.9948 200.871 78.6302 202.121 78.2656C203.371 77.849 204.387 77.4844 205.168 77.1719C207.251 76.3385 209.283 75.4531 211.262 74.5156C213.293 73.526 215.324 72.4323 217.355 71.2344C219.439 70.0365 221.574 68.6562 223.762 67.0937C225.949 65.4792 228.293 63.6042 230.793 61.4687C231.001 61.3646 231.158 61.3125 231.262 61.3125C231.418 61.3125 231.574 61.3646 231.73 61.4687C231.887 61.5729 231.965 61.7552 231.965 62.0156C231.965 62.224 231.887 62.4062 231.73 62.5625C229.178 64.75 226.783 66.651 224.543 68.2656C222.303 69.8281 220.142 71.2344 218.059 72.4844C215.975 73.6823 213.918 74.75 211.887 75.6875C209.855 76.625 207.772 77.5365 205.637 78.4219C204.491 78.8385 203.215 79.2552 201.809 79.6719C200.402 80.0885 198.918 80.4531 197.355 80.7656C195.845 81.0781 194.283 81.3385 192.668 81.5469C191.053 81.7552 189.465 81.8594 187.902 81.8594C186.236 81.8594 184.621 81.7031 183.059 81.3906C181.496 81.1302 180.09 80.6615 178.84 79.9844ZM185.246 54.5156C186.079 54.8802 187.069 55.2708 188.215 55.6875C189.413 56.1042 190.715 56.4948 192.121 56.8594C193.527 57.1719 195.038 57.4583 196.652 57.7187C198.267 57.9271 199.908 58.0312 201.574 58.0312C203.71 58.0312 205.845 57.7188 207.98 57.0938C210.116 56.4688 212.043 55.6354 213.762 54.5937C215.48 53.5521 216.887 52.3281 217.98 50.9219C219.074 49.4635 219.621 47.9531 219.621 46.3906C219.621 45.2969 219.335 44.3073 218.762 43.4219C218.241 42.4844 217.512 41.6771 216.574 41C215.637 40.3229 214.543 39.8021 213.293 39.4375C212.095 39.0729 210.845 38.8906 209.543 38.8906C207.876 38.8906 206.053 39.125 204.074 39.5937C202.147 40.0625 200.064 40.8698 197.824 42.0156C195.637 43.1094 193.293 44.5937 190.793 46.4687C188.345 48.3437 185.793 50.7135 183.137 53.5781L185.246 54.5156ZM216.965 80.6875C216.861 80.7917 217.173 80.375 217.902 79.4375C218.579 78.5 219.517 77.25 220.715 75.6875C221.861 74.0729 223.189 72.224 224.699 70.1406C226.21 68.0052 227.746 65.7656 229.309 63.4219C231.548 60.0885 233.345 57.276 234.699 54.9844C236.053 52.6406 237.095 50.6875 237.824 49.125C238.605 47.5625 239.126 46.3385 239.387 45.4531C239.647 44.5677 239.777 43.8906 239.777 43.4219C239.777 43.1094 239.725 42.901 239.621 42.7969C239.569 42.6406 239.543 42.4844 239.543 42.3281C239.543 41.8594 239.777 41.625 240.246 41.625C240.819 41.625 241.105 42.1979 241.105 43.3437C241.105 44.4896 240.376 46.651 238.918 49.8281C237.46 52.9531 234.986 57.25 231.496 62.7188C238.163 55.5833 244.647 50.1927 250.949 46.5469C257.303 42.901 263.241 41.0781 268.762 41.0781C271.939 41.0781 274.465 41.599 276.34 42.6406C278.215 43.6302 279.152 45.1927 279.152 47.3281C279.152 48.3698 278.944 49.4375 278.527 50.5312C278.111 51.5729 277.642 52.5365 277.121 53.4219C276.6 54.3073 276.132 55.0365 275.715 55.6094C275.298 56.1302 275.064 56.4167 275.012 56.4687C275.012 56.4687 274.829 56.7031 274.465 57.1719C274.152 57.5885 273.71 58.1615 273.137 58.8906C272.564 59.6198 271.913 60.4531 271.184 61.3906C270.507 62.3281 269.829 63.3437 269.152 64.4375C265.975 69.3854 264.387 73.1875 264.387 75.8438C264.387 76.9375 264.725 77.875 265.402 78.6562C266.079 79.3854 267.173 79.75 268.684 79.75C270.454 79.75 272.668 79.125 275.324 77.875C278.033 76.625 281.184 74.75 284.777 72.25C286.444 71.1042 288.007 69.9583 289.465 68.8125C290.975 67.6667 292.303 66.625 293.449 65.6875C294.595 64.75 295.48 63.9948 296.105 63.4219C296.783 62.7969 297.121 62.4844 297.121 62.4844C297.329 62.3802 297.486 62.3281 297.59 62.3281C298.059 62.3281 298.293 62.5625 298.293 63.0312C298.293 63.2396 298.215 63.4219 298.059 63.5781C296.913 64.6198 295.663 65.6875 294.309 66.7812C293.163 67.7187 291.835 68.7865 290.324 69.9844C288.866 71.1302 287.303 72.276 285.637 73.4219C278.345 78.526 272.694 81.0781 268.684 81.0781C266.861 81.0781 265.454 80.5833 264.465 79.5938C263.475 78.6042 262.98 77.3542 262.98 75.8438C262.98 72.8229 264.647 68.7604 267.98 63.6562C268.71 62.6146 269.413 61.599 270.09 60.6094C270.819 59.6198 271.47 58.7604 272.043 58.0312C272.72 57.1458 273.371 56.3385 273.996 55.6094C274.673 54.724 275.298 53.8125 275.871 52.875C276.34 52.0938 276.757 51.2083 277.121 50.2187C277.538 49.2292 277.746 48.2917 277.746 47.4062C277.746 44.1771 274.725 42.5625 268.684 42.5625C265.507 42.5625 262.355 43.1354 259.23 44.2812C256.105 45.375 253.085 46.8073 250.168 48.5781C247.251 50.349 244.465 52.3802 241.809 54.6719C239.152 56.9115 236.704 59.1771 234.465 61.4687C232.225 63.7604 230.22 65.974 228.449 68.1094C226.678 70.2448 225.194 72.0677 223.996 73.5781C223.215 74.6198 222.486 75.6094 221.809 76.5469C221.079 77.4844 220.454 78.3177 219.934 79.0469C219.361 79.776 218.918 80.375 218.605 80.8437C218.293 81.3125 218.137 81.5469 218.137 81.5469L216.965 80.6875Z" fill="#B56DB5"/>
</svg>
